<?xml version="1.0" encoding="UTF-8" standalone="no"?>
<svg
   xmlns:dc="http://purl.org/dc/elements/1.1/"
   xmlns:cc="http://creativecommons.org/ns#"
   xmlns:rdf="http://www.w3.org/1999/02/22-rdf-syntax-ns#"
   xmlns:svg="http://www.w3.org/2000/svg"
   xmlns="http://www.w3.org/2000/svg"
   xmlns:sodipodi="http://sodipodi.sourceforge.net/DTD/sodipodi-0.dtd"
   xmlns:inkscape="http://www.inkscape.org/namespaces/inkscape"
   viewBox="0 -13 511.99989 511"
   version="1.1"
   id="svg5254"
   sodipodi:docname="height.svg"
   inkscape:version="0.92.4 (5da689c313, 2019-01-14)">
  <metadata
     id="metadata5260">
    <rdf:RDF>
      <cc:Work
         rdf:about="">
        <dc:format>image/svg+xml</dc:format>
        <dc:type
           rdf:resource="http://purl.org/dc/dcmitype/StillImage" />
        <dc:title></dc:title>
      </cc:Work>
    </rdf:RDF>
  </metadata>
  <defs
     id="defs5258" />
  <sodipodi:namedview
     pagecolor="#ffffff"
     bordercolor="#666666"
     borderopacity="1"
     objecttolerance="10"
     gridtolerance="10"
     guidetolerance="10"
     inkscape:pageopacity="0"
     inkscape:pageshadow="2"
     inkscape:window-width="1920"
     inkscape:window-height="1017"
     id="namedview5256"
     showgrid="false"
     inkscape:zoom="0.46183953"
     inkscape:cx="255.99994"
     inkscape:cy="255.5"
     inkscape:window-x="-8"
     inkscape:window-y="32"
     inkscape:window-maximized="1"
     inkscape:current-layer="g5884" />
  <g
     id="g5884"
     transform="matrix(1,0,0,1.0307803,-0.50000042,-22.461991)">
    <g
       id="g5815"
       transform="matrix(0.61498191,0,0,0.84177268,30.31356,43.561031)"
       style="fill:#388e3c;fill-opacity:1">
	<g
   id="g5813"
   style="fill:#388e3c;fill-opacity:1">
		<path
   id="path5811"
   d="M 73.444,14.713 C 70.281,11.55 65.661,9.575 61.51,9.809 57.041,9.826 52.773,11.65 49.643,14.847 L 0,65.662 23.951,89.044 44.873,67.62 v 92.826 H 78.348 V 66.951 L 99.99,88.593 123.657,64.926 Z"
   inkscape:connector-curvature="0"
   style="fill:#388e3c;fill-opacity:1" />

	</g>

</g>
    <g
       id="g5821"
       transform="matrix(0.61498191,0,0,0.84177268,30.31356,43.561031)"
       style="fill:#388e3c;fill-opacity:1">
	<g
   id="g5819"
   style="fill:#388e3c;fill-opacity:1">
		<path
   id="path5817"
   d="M 99.906,315.469 78.348,337.295 V 244.151 H 44.873 v 93.178 L 23.851,316.072 0.05,339.605 49.71,389.818 c 3.147,3.18 7.431,4.971 11.9,4.971 4.486,0 8.754,-1.791 11.9,-4.971 l 50.213,-50.798 z"
   inkscape:connector-curvature="0"
   style="fill:#388e3c;fill-opacity:1" />

	</g>

</g>
    <g
       id="g5823">
</g>
    <g
       id="g5825">
</g>
    <g
       id="g5827">
</g>
    <g
       id="g5829">
</g>
    <g
       id="g5831">
</g>
    <g
       id="g5833">
</g>
    <g
       id="g5835">
</g>
    <g
       id="g5837">
</g>
    <g
       id="g5839">
</g>
    <g
       id="g5841">
</g>
    <g
       id="g5843">
</g>
    <g
       id="g5845">
</g>
    <g
       id="g5847">
</g>
    <g
       id="g5849">
</g>
    <g
       id="g5851">
</g>
    <g
       id="g6021"
       transform="matrix(0.62859781,0,0,0.74052518,151.8609,33.822653)"
       style="fill:#388e3c;fill-opacity:1">
      <g
         id="g5964"
         style="fill:#388e3c;fill-opacity:1">
	<g
   id="g5962"
   style="fill:#388e3c;fill-opacity:1">
		<path
   id="path5960"
   d="m 511.966,388.792 c 0,-0.141 0,-0.266 -0.016,-0.406 -0.016,-0.094 -0.016,-0.188 -0.031,-0.281 -0.016,-0.156 -0.047,-0.297 -0.062,-0.453 -0.016,-0.078 -0.016,-0.156 -0.047,-0.234 -0.031,-0.219 -0.078,-0.453 -0.125,-0.672 L 436.997,88.084 c -1.172,-4.75 -5.438,-8.086 -10.344,-8.086 H 85.329 c -4.891,0 -9.156,3.336 -10.344,8.086 L 0.313,386.745 c -0.062,0.219 -0.094,0.453 -0.141,0.672 -0.016,0.078 -0.016,0.156 -0.047,0.25 -0.016,0.141 -0.031,0.281 -0.062,0.438 0,0.094 -0.016,0.188 -0.031,0.281 0,0.141 -0.016,0.266 -0.016,0.406 C 0,388.886 0,388.995 0,389.089 c 0,0.078 0,0.156 0,0.234 v 32 c 0,3.453 1.672,6.703 4.484,8.703 2.828,2 6.438,2.516 9.703,1.375 l 57.562,-20.109 58.093,20.109 c 2.25,0.797 4.719,0.781 7,0 l 57.812,-20.109 57.843,20.109 c 2.25,0.797 4.734,0.797 7,0 l 57.828,-20.109 57.827,20.109 c 2.281,0.797 4.75,0.797 7,0 l 57.843,-20.109 57.828,20.109 c 1.141,0.391 2.328,0.594 3.5,0.594 2.188,0 4.359,-0.672 6.172,-1.969 2.828,-2 4.5,-5.25 4.5,-8.703 v -32 c 0.002,-0.078 0.002,-0.156 0.002,-0.234 -0.016,-0.094 -0.016,-0.203 -0.031,-0.297 z m -25.782,-16.015 -42.688,-14.859 c -2.266,-0.781 -4.734,-0.781 -7,0 l -48.889,16.999 -10.609,-84.969 43.593,-15.076 45.109,15.936 z m -44.468,-177.905 17.781,71.125 -35.328,-12.477 c -2.266,-0.805 -4.766,-0.812 -7.047,-0.023 l -42.843,14.82 -9.297,-74.429 36.547,-12.805 z m -23.375,-93.539 17.219,68.875 -30.593,-10.5 c -2.281,-0.781 -4.734,-0.773 -7,0.023 l -35.688,12.5 -8.875,-70.898 z m -151.686,0.001 c 0,0 65.25,0 65.25,0 l 8.719,69.656 -32.656,-11.273 c -2.25,-0.781 -4.719,-0.781 -6.969,0.008 l -34.344,11.937 z m -10e-4,92.914 v 0 l 37.845,-13.164 39.062,13.5 9.046,72.296 -38.218,-13.367 c -2.266,-0.797 -4.75,-0.797 -7.016,-0.008 l -40.719,14.156 z m 0,95.997 v 0 l 44.204,-15.373 44.702,15.639 10.375,83.094 -45.093,-15.688 c -2.281,-0.781 -4.75,-0.781 -7.016,0 l -47.172,16.406 z M 180.077,101.334 h 65.25 v 70.328 l -34.328,-11.937 c -2.25,-0.789 -4.719,-0.789 -6.984,-0.008 l -32.641,11.273 z m 65.251,188.912 v 84.078 l -47.172,-16.407 c -2.25,-0.781 -4.719,-0.781 -7,0 l -45.109,15.688 10.391,-83.062 44.687,-15.67 z m -76.907,-95.663 39.062,-13.5 37.843,13.164 v 73.414 l -40.703,-14.156 c -2.281,-0.789 -4.75,-0.789 -7.031,0.008 l -38.218,13.391 z M 93.657,101.334 h 64.921 l -8.859,70.898 -35.688,-12.5 c -2.266,-0.797 -4.734,-0.805 -7,-0.023 l -30.593,10.5 z m -23.375,93.539 40.187,-13.789 36.531,12.805 -9.281,74.406 -42.875,-14.797 c -2.281,-0.789 -4.75,-0.781 -7.031,0.023 l -35.312,12.477 z m -24,95.934 45.125,-15.936 43.593,15.045 -10.625,85.016 -49.14,-17.015 c -1.141,-0.391 -2.312,-0.594 -3.484,-0.594 -1.188,0 -2.391,0.203 -3.531,0.594 l -42.406,14.828 z m 444.369,115.518 -47.154,-16.408 c -2.266,-0.781 -4.734,-0.781 -7,0 l -57.843,20.109 -57.812,-20.109 c -2.281,-0.781 -4.75,-0.781 -7.016,0 l -57.827,20.109 -57.843,-20.109 c -2.25,-0.781 -4.719,-0.781 -7,0 l -57.843,20.125 -58.078,-20.125 c -1.141,-0.391 -2.312,-0.594 -3.484,-0.594 -1.188,0 -2.391,0.203 -3.531,0.594 l -46.89,16.391 v -9.406 l 50.421,-17.609 58.093,20.109 v 0.016 c 0.125,0.031 0.219,0.062 0.328,0.094 0.203,0.062 0.422,0.125 0.641,0.172 0.125,0.031 0.25,0.062 0.375,0.078 0.203,0.047 0.422,0.094 0.625,0.125 0.062,0 0.125,0.016 0.188,0.031 0.109,0.016 0.219,0.016 0.312,0.031 0.078,0 0.141,0 0.219,0.016 0.266,0.016 0.531,0.031 0.812,0.031 0.172,0 0.344,-0.016 0.531,-0.031 0.125,0 0.25,0 0.375,-0.016 0.188,-0.016 0.375,-0.047 0.578,-0.062 0.109,-0.016 0.219,-0.031 0.328,-0.047 0.188,-0.031 0.375,-0.078 0.562,-0.125 0.125,-0.031 0.234,-0.047 0.344,-0.078 0.188,-0.047 0.344,-0.109 0.531,-0.156 0.078,-0.031 0.156,-0.047 0.25,-0.078 l 57.812,-20.109 57.843,20.109 c 0.031,0.016 0.094,0.031 0.141,0.047 0.141,0.047 0.297,0.094 0.453,0.141 0.172,0.047 0.344,0.078 0.5,0.125 0.156,0.031 0.297,0.062 0.438,0.094 0.203,0.031 0.406,0.062 0.594,0.094 0.125,0.016 0.25,0.031 0.375,0.047 0.344,0.031 0.656,0.047 1,0.047 0.328,0 0.656,-0.016 0.984,-0.047 0.141,-0.016 0.25,-0.031 0.375,-0.047 0.203,-0.031 0.391,-0.062 0.594,-0.094 0.141,-0.031 0.297,-0.062 0.453,-0.094 0.156,-0.047 0.312,-0.078 0.484,-0.125 0.156,-0.047 0.312,-0.094 0.469,-0.141 0.047,-0.016 0.094,-0.031 0.141,-0.047 l 57.828,-20.109 57.827,20.109 c 0.094,0.031 0.156,0.047 0.25,0.078 0.172,0.047 0.344,0.109 0.531,0.156 0.109,0.031 0.219,0.047 0.344,0.078 0.188,0.047 0.375,0.094 0.562,0.125 0.109,0.016 0.219,0.031 0.344,0.047 0.188,0.031 0.375,0.047 0.562,0.062 0.156,0.016 0.344,0.016 0.5,0.031 0.125,0 0.266,0.016 0.406,0.016 0.266,0 0.531,-0.016 0.812,-0.031 0.062,-0.016 0.156,-0.016 0.234,-0.031 0.094,0 0.188,-0.016 0.281,-0.016 0.062,-0.016 0.109,-0.031 0.172,-0.031 0.219,-0.031 0.453,-0.078 0.672,-0.125 0.109,-0.016 0.234,-0.047 0.359,-0.078 0.203,-0.047 0.422,-0.109 0.625,-0.172 0.125,-0.031 0.219,-0.062 0.344,-0.109 l 57.843,-20.109 50.656,17.625 z"
   inkscape:connector-curvature="0"
   style="fill:#388e3c;fill-opacity:1" />

	</g>

</g>
      <g
         id="g5966"
         style="fill:#388e3c;fill-opacity:1">
</g>
      <g
         id="g5968"
         style="fill:#388e3c;fill-opacity:1">
</g>
      <g
         id="g5970"
         style="fill:#388e3c;fill-opacity:1">
</g>
      <g
         id="g5972"
         style="fill:#388e3c;fill-opacity:1">
</g>
      <g
         id="g5974"
         style="fill:#388e3c;fill-opacity:1">
</g>
      <g
         id="g5976"
         style="fill:#388e3c;fill-opacity:1">
</g>
      <g
         id="g5978"
         style="fill:#388e3c;fill-opacity:1">
</g>
      <g
         id="g5980"
         style="fill:#388e3c;fill-opacity:1">
</g>
      <g
         id="g5982"
         style="fill:#388e3c;fill-opacity:1">
</g>
      <g
         id="g5984"
         style="fill:#388e3c;fill-opacity:1">
</g>
      <g
         id="g5986"
         style="fill:#388e3c;fill-opacity:1">
</g>
      <g
         id="g5988"
         style="fill:#388e3c;fill-opacity:1">
</g>
      <g
         id="g5990"
         style="fill:#388e3c;fill-opacity:1">
</g>
      <g
         id="g5992"
         style="fill:#388e3c;fill-opacity:1">
</g>
      <g
         id="g5994"
         style="fill:#388e3c;fill-opacity:1">
</g>
    </g>
  </g>
</svg>
