<?xml version="1.0"?>
<svg xmlns="http://www.w3.org/2000/svg" id="Layer_1" data-name="Layer 1" viewBox="0 0 512 512" width="512" height="512"><title>Car trunk</title><path d="M480,249a7,7,0,0,1-6.524-4.46l-23-59a7,7,0,0,1,13.044-5.084l23,59A7,7,0,0,1,480,249Z" style="fill:#6fe3ff"/><path d="M398.006,228a7,7,0,0,1-4.075-12.7l.14-.1,74.789-54.849a7,7,0,1,1,8.28,11.29L402.069,226.7A6.969,6.969,0,0,1,398.006,228Z" style="fill:#d37f5e"/><path d="M398.14,220.9l66.29,14.29A40,40,0,0,1,496,274.29v40.62a4.313,4.313,0,0,1-4.31,4.32H434.72a40,40,0,0,0-79.94,0H245.08V221.19l152.46-.42Zm55.88,57.92H472c0-16.56-13.43-24.82-30-24.82v12.8A12.018,12.018,0,0,0,454.02,278.82Z" style="fill:#e48e66"/><path d="M472,278.82H454.02A12.018,12.018,0,0,1,442,266.8V254C458.57,254,472,262.26,472,278.82Z" style="fill:#6fe3ff"/><path d="M434.72,319.23q.03.75.03,1.5a40,40,0,0,1-80,0q0-.75.03-1.5a40,40,0,0,1,79.94,0Z" style="fill:#f8ec7d"/><path d="M397.54,220.77l-152.46.42V150.88a187.083,187.083,0,0,1,40.91,6.16,223.458,223.458,0,0,1,29.23,9.97C364.67,187.68,397.54,220.77,397.54,220.77Z" style="fill:#f8ec7d"/><path d="M16,254.82V221.83l229.08-.64v98.04H152.15a40,40,0,0,0-79.68-2.68H63.3a41.771,41.771,0,0,1-24.42-7.67,1.7,1.7,0,0,0-.14-.1A54.978,54.978,0,0,1,16,264.23Z" style="fill:#d68667"/><path d="M134.39,150.77H239.05q3.03,0,6.03.11v70.31L16,221.83v-1.86a19.993,19.993,0,0,1,6.98-15.18l57.4-49.2a20,20,0,0,1,13.02-4.82Z" style="fill:#eadc78"/><path d="M72.47,316.55a40,40,0,0,1,79.68,2.68c.03.66.05,1.33.05,2a40,40,0,1,1-79.73-4.68Z" style="fill:#f8ec7d"/><path d="M302.45,251.82H277.73a7,7,0,0,1,0-14h24.72a7,7,0,0,1,0,14Z" style="fill:#f8ec7d"/><path d="M40.33,261.82H16a7,7,0,0,1,0-14H40.33a7,7,0,0,1,0,14Z" style="fill:#f8ec7d"/></svg>
