<svg height="512pt" viewBox="-16 0 512 512.00075" width="512pt" xmlns="http://www.w3.org/2000/svg"><path d="m340.347656 375.421875-55.675781-32.035156c-7.382813 5.070312-15.585937 9.289062-24.464844 12.582031l-20.214843 7.5v-214.921875l20.214843 7.5c8.878907 3.296875 17.066407 7.5 24.464844 12.582031l55.574219-31.976562 8.113281 9.039062c14.925781 16.625 26.367187 37.441406 33.105469 58.300782l3.734375 11.558593-55.574219 31.992188c.234375 2.765625.363281 5.578125.363281 8.464843 0 2.886719-.128906 5.699219-.363281 8.46875l55.574219 31.988282-3.734375 12.558594c-6.667969 20.625-17.769532 39.871093-33.003906 57.1875zm0 0" fill="#bbdcff"/><path d="m479.984375 256.007812c0-39.898437-9.597656-80.195312-27.296875-115.296874l-24.597656-2.699219 9.597656-23.101563c-11.101562-17.097656-24.597656-32.996094-39.898438-47.398437-53.101562-48.898438-122.097656-72.597657-194.09375-66.597657l-13.800781 1.199219v107.464844c11.308594-2.730469 22.953125-4.566406 35.097657-4.566406 82.796874 0 149.996093 68.199219 149.996093 150.996093 0 82.796876-67.199219 150.996094-149.996093 150.996094-12.144532 0-23.789063-1.839844-35.097657-4.566406v107.460938l13.800781 1.199218c7.199219.601563 14.398438.902344 21.597657.902344 64.199219 0 124.796875-23.699219 172.496093-67.5 15.300782-14.398438 28.796876-30.296875 39.898438-47.398438l-5.101562-20.699218 20.402343-5.097656c17.398438-35.097657 26.996094-75.398438 26.996094-115.296876zm0 0" fill="#575f64"/><path d="m452.988281 371.304688c-4.800781 9-9.597656 17.699218-15.296875 25.800781l-51.300781-29.699219 15-25.800781zm0 0" fill="#32393f"/><path d="m452.6875 140.710938-51.300781 29.699218-14.996094-25.796875 51.296875-29.703125c5.699219 8.101563 10.5 16.800782 15 25.800782zm0 0" fill="#32393f"/><path d="m224.992188 90.011719c-5.0625 0-10.050782.308593-14.996094.757812v30.757813c4.988281-.5625 9.863281-1.515625 14.996094-1.515625 74.441406 0 134.996093 61.554687 134.996093 135.996093 0 74.441407-60.554687 135.996094-134.996093 135.996094-5.132813 0-10.007813-.953125-14.996094-1.515625v30.757813c4.945312.449218 9.933594.757812 14.996094.757812 91.125 0 164.996093-74.871094 164.996093-165.996094s-73.871093-165.996093-164.996093-165.996093zm0 0" fill="#e0f4ff"/><path d="m269.992188 77.113281-18.597657 28.5 18.597657 7.5v83.695313l-15 31.597656 15 5.703125v84.996094l-16.199219 26.699219 16.199219 9.300781v81.898437c0 41.398438-33.597657 74.996094-74.996094 74.996094h-15l-13.800782-27.597656-16.199218 27.597656h-30s-10.496094-24.898438-11.398438-24.898438c0 1.800782-18.601562 24.898438-18.601562 24.898438h-14.996094c-41.402344 0-75-33.597656-75-74.996094v-81.898437l13.800781-11.101563-13.800781-25.199218v-84.695313l13.199219-8.699219-13.199219-27.300781v-84.996094l22.5-8.097656-22.5-28.199219v-1.800781c0-41.398437 33.597656-75 75-75h14.996094s11.402344 21.300781 13.203125 20.097656c1.796875-1.5 16.796875-20.097656 16.796875-20.097656h30l10.5 16.800781 19.5-16.800781h15c41.398437 0 74.996094 33.601563 74.996094 75zm0 0" fill="#575f64"/><path d="m269.992188 77.113281-18.597657 28.5 18.597657 7.5v83.695313l-15 31.597656 15 5.703125v84.996094l-16.199219 26.699219 16.199219 9.300781v81.898437c0 41.398438-33.597657 74.996094-74.996094 74.996094h-15l-13.800782-27.597656-16.199218 27.597656h-15v-511.984375h15l10.5 16.800781 19.5-16.800781h15c41.398437 0 74.996094 33.597656 74.996094 74.996094zm0 0" fill="#32393f"/><path d="m119.996094.015625v511.984375h-30v-96.898438l-89.996094-59.996093v-36.300781l89.996094 60.300781v-85l-89.996094-59.996094v-36l89.996094 60v-85l-89.996094-59.996094v-36.300781l89.996094 60.300781v-137.097656zm0 0" fill="#7c8388"/><path d="m179.996094 173.109375v85l89.996094-61.300781v37.300781l-89.996094 59.996094v85l89.996094-60v36l-89.996094 59.996093v96.898438h-30v-511.984375h30v137.097656l89.996094-60v36zm0 0" fill="#575f64"/></svg>