<?xml version="1.0" encoding="iso-8859-1"?>
<!-- Generator: Adobe Illustrator 19.0.0, SVG Export Plug-In . SVG Version: 6.00 Build 0)  -->
<svg width="32px" height="32px" version="1.1" id="Capa_1" xmlns="http://www.w3.org/2000/svg" xmlns:xlink="http://www.w3.org/1999/xlink" x="0px" y="0px"
	 viewBox="0 0 1024 512" xml:space="preserve">
<path style="fill:#CFD8DC;" d="M508.886,419.115L345.75,256.001l13.781-13.781c4.164-4.165,4.164-10.917,0-15.083l-21.333-21.333
	c-4.165-4.164-10.917-4.164-15.083,0L205.782,323.137c-4.164,4.165-4.164,10.917,0,15.083l21.333,21.333
	c4.165,4.164,10.917,4.164,15.083,0l13.803-13.803l21.333,21.333v27.584c0,5.891,4.776,10.667,10.667,10.667h27.584l47.083,47.083
	v27.584c0,5.891,4.776,10.667,10.667,10.667h27.584l18.219,18.219c1.999,1.994,4.707,3.114,7.531,3.115h74.667
	c5.891,0,10.667-4.776,10.667-10.667v-74.667C512.006,423.836,510.885,421.12,508.886,419.115z"/>
<path style="fill:#455A64;" d="M344.449,116.033L254.166,25.75c-34.333-34.333-89.997-34.333-124.33-0.001c0,0,0,0-0.001,0.001
	L25.75,129.835c-34.333,34.333-34.333,89.997-0.001,124.33c0,0,0,0,0.001,0.001l90.283,90.283
	c11.685,11.625,27.485,18.172,43.968,18.219c16.499,0.033,32.328-6.526,43.968-18.219L344.47,203.947
	c24.277-24.277,24.277-63.638,0-87.915L344.449,116.033z M203.947,118.614l-85.333,85.333c-12.712,12.278-32.97,11.925-45.248-0.787
	c-11.977-12.401-11.977-32.06,0-44.461l85.333-85.333c12.501-12.501,32.769-12.501,45.269,0s12.501,32.769,0,45.269L203.947,118.614
	z"/>
<path style="fill:#90A4AE;" d="M455.553,440.449L306.219,291.115c-4.237-4.092-10.99-3.975-15.083,0.262
	c-3.992,4.134-3.992,10.687,0,14.82L440.47,455.531c4.237,4.093,10.99,3.976,15.083-0.261
	C459.545,451.136,459.545,444.582,455.553,440.449z"/>
<g>
</g>
<g>
</g>
<g>
</g>
<g>
</g>
<g>
</g>
<g>
</g>
<g>
</g>
<g>
</g>
<g>
</g>
<g>
</g>
<g>
</g>
<g>
</g>
<g>
</g>
<g>
</g>
<g>
</g>
</svg>
