<?xml version="1.0" encoding="iso-8859-1"?>
<!-- Generator: Adobe Illustrator 19.0.0, SVG Export Plug-In . SVG Version: 6.00 Build 0)  -->
<svg version="1.1" id="Capa_1" xmlns="http://www.w3.org/2000/svg" xmlns:xlink="http://www.w3.org/1999/xlink" x="0px" y="0px"
	 viewBox="0 0 512 512" style="enable-background:new 0 0 512 512;" xml:space="preserve">
<g>
	<path style="fill:#E82934;" d="M337.981,177.103l-78.546,132.409c-1.567,2.642-5.391,2.641-6.958-0.002l-78.462-132.409
		c-0.753-1.271-0.754-2.852-0.001-4.124l78.462-132.492c1.566-2.644,5.392-2.645,6.959-0.002l78.546,132.492
		C338.736,174.248,338.736,175.831,337.981,177.103z"/>
	<path style="fill:#E82934;" d="M165.479,473.497l-153.936-0.309c-3.067-0.006-5.012-3.291-3.541-5.984l73.874-135.295
		c0.71-1.3,2.074-2.108,3.555-2.106l153.965,0.194c3.068,0.004,5.015,3.29,3.545,5.983l-73.903,135.41
		C168.327,472.691,166.961,473.5,165.479,473.497z"/>
	<path style="fill:#E82934;" d="M500.453,473.188l-25.308,0.051l-128.622,0.263c-1.486,0-2.851-0.809-3.559-2.114l-73.901-135.409
		c-1.476-2.69,0.475-5.977,3.539-5.987l129.158-0.162l24.812-0.03c1.476,0,2.841,0.809,3.549,2.114l73.881,135.287
		C505.468,469.901,503.527,473.178,500.453,473.188z"/>
</g>
<g>
	<path style="fill:#C7232C;" d="M500.453,473.188l-25.308,0.051l0.03-0.051c3.074-0.01,5.015-3.287,3.549-5.987l-73.881-135.287
		c-0.637-1.163-1.79-1.932-3.084-2.083l24.812-0.03c1.476,0,2.841,0.809,3.549,2.114l73.881,135.287
		C505.468,469.901,503.527,473.178,500.453,473.188z"/>
	<path style="fill:#C7232C;" d="M239.395,329.997L85.43,329.803c-0.16,0-0.317,0.013-0.473,0.032l128.824,0.162
		c3.068,0.004,5.015,3.29,3.545,5.983l-73.903,135.41c-0.61,1.118-1.705,1.868-2.941,2.057l24.997,0.05
		c1.482,0.003,2.848-0.806,3.558-2.107l73.904-135.41C244.41,333.286,242.464,330.001,239.395,329.997z"/>
	<path style="fill:#C7232C;" d="M312.199,172.976c0.754,1.272,0.754,2.855,0,4.127l-69.128,116.532l9.407,15.875
		c1.566,2.643,5.39,2.644,6.957,0.002l78.546-132.409c0.755-1.272,0.755-2.855,0-4.127L259.436,40.483
		c-1.567-2.643-5.393-2.643-6.959,0.002l-9.407,15.884L312.199,172.976z"/>
</g>
<path d="M265.885,313.339l12.753-21.5c2.113-3.563,0.938-8.164-2.624-10.277c-3.56-2.112-8.163-0.938-10.276,2.624l-9.78,16.487
	l-74.445-125.635l74.445-125.715l74.524,125.715l-47.748,80.497c-2.113,3.562-0.938,8.164,2.624,10.277
	c3.561,2.112,8.163,0.939,10.276-2.624l48.793-82.258c2.156-3.633,2.157-8.148,0.002-11.779L265.887,36.656
	c-2.101-3.543-5.812-5.657-9.93-5.657c-0.001,0-0.002,0-0.004,0c-4.119,0.001-7.831,2.118-9.928,5.662l-78.459,132.495
	c-2.149,3.629-2.149,8.139,0.001,11.768l78.459,132.409c2.099,3.543,5.809,5.659,9.927,5.661c0.002,0,0.003,0,0.005,0
	C260.074,318.993,263.785,316.88,265.885,313.339z"/>
<path d="M239.406,322.498l-111.057-0.14c-0.004,0-0.007,0-0.01,0c-4.138,0-7.495,3.352-7.5,7.491
	c-0.005,4.142,3.349,7.504,7.49,7.509l105.244,0.132l-70.132,128.504l-146.066-0.293L87.48,337.307l8.517,0.011
	c0.004,0,0.007,0,0.01,0c4.138,0,7.495-3.352,7.5-7.49c0.005-4.142-3.349-7.504-7.49-7.51l-10.573-0.014c-0.004,0-0.008,0-0.012,0
	c-4.226,0-8.108,2.303-10.133,6.012L1.428,463.611c-1.972,3.609-1.897,7.877,0.197,11.416c2.095,3.539,5.8,5.656,9.911,5.664
	l153.931,0.308c0.008,0,0.015,0,0.022,0c4.227,0,8.109-2.303,10.133-6.014l73.902-135.412c1.97-3.611,1.894-7.879-0.203-11.417
	C247.225,324.618,243.518,322.503,239.406,322.498z"/>
<path d="M510.573,463.612l-73.872-135.296c-2.025-3.71-5.907-6.012-10.135-6.012c-0.004,0-0.008,0-0.012,0l-153.96,0.194
	c-4.113,0.005-7.821,2.121-9.918,5.66s-2.171,7.807-0.2,11.416l73.9,135.411c2.025,3.711,5.906,6.015,10.133,6.015
	c0.008,0,0.016,0,0.022,0l101.477-0.203c4.142-0.008,7.493-3.373,7.485-7.515c-0.008-4.137-3.364-7.485-7.5-7.485
	c-0.005,0-0.01,0-0.015,0l-99.422,0.199l-70.132-128.504l146.093-0.184l70.104,128.395l-14.312,0.029
	c-4.142,0.008-7.494,3.373-7.485,7.515c0.009,4.137,3.364,7.485,7.5,7.485c0.005,0,0.01,0,0.015,0l20.122-0.041
	c4.111-0.008,7.816-2.125,9.911-5.664C512.469,471.488,512.544,467.22,510.573,463.612z"/>
<g>
</g>
<g>
</g>
<g>
</g>
<g>
</g>
<g>
</g>
<g>
</g>
<g>
</g>
<g>
</g>
<g>
</g>
<g>
</g>
<g>
</g>
<g>
</g>
<g>
</g>
<g>
</g>
<g>
</g>
</svg>
